<svg width="32" height="32" viewBox="0 0 32 32" fill="none" xmlns="http://www.w3.org/2000/svg">
<rect width="32" height="32" rx="10" fill="white"/>
<path d="M14.6895 16.9355C14.6895 17.5475 14.6341 18.1302 14.5234 18.6836C14.4128 19.2305 14.2533 19.7383 14.0449 20.207C13.8236 20.6758 13.5501 21.1055 13.2246 21.4961C12.8991 21.8867 12.528 22.2122 12.1113 22.4727C11.7337 22.7005 11.3171 22.8763 10.8613 23C10.4121 23.1302 9.92708 23.1953 9.40625 23.1953C8.85286 23.1953 8.3418 23.1237 7.87305 22.9805C7.4043 22.8372 6.97786 22.6354 6.59375 22.375C6.21615 22.1016 5.8776 21.7728 5.57812 21.3887C5.27865 20.998 5.02799 20.5586 4.82617 20.0703C4.64388 19.6211 4.50391 19.1328 4.40625 18.6055C4.3151 18.0781 4.26953 17.5215 4.26953 16.9355V14.8652C4.26953 14.2402 4.32161 13.6478 4.42578 13.0879C4.53646 12.528 4.69596 12.0104 4.9043 11.5352C5.10612 11.0859 5.35026 10.679 5.63672 10.3145C5.92969 9.94987 6.26497 9.63737 6.64258 9.37695C7.01367 9.12305 7.43034 8.92773 7.89258 8.79102C8.35482 8.6543 8.85612 8.58594 9.39648 8.58594C9.94336 8.58594 10.4544 8.65755 10.9297 8.80078C11.4115 8.9375 11.8444 9.13607 12.2285 9.39648C12.6126 9.64388 12.9479 9.94336 13.2344 10.2949C13.5273 10.6465 13.778 11.0339 13.9863 11.457C14.2142 11.9388 14.3867 12.4661 14.5039 13.0391C14.6276 13.612 14.6895 14.2207 14.6895 14.8652V16.9355ZM11.9062 14.8457C11.9062 14.4811 11.8867 14.1361 11.8477 13.8105C11.8151 13.4785 11.7598 13.1725 11.6816 12.8926C11.584 12.541 11.4538 12.2285 11.291 11.9551C11.1283 11.6751 10.9362 11.4473 10.7148 11.2715C10.5391 11.1413 10.3405 11.0404 10.1191 10.9688C9.9043 10.8971 9.66341 10.8613 9.39648 10.8613C9.14258 10.8613 8.91146 10.8939 8.70312 10.959C8.5013 11.0241 8.31901 11.1185 8.15625 11.2422C7.9349 11.4245 7.74609 11.6523 7.58984 11.9258C7.4401 12.1992 7.32292 12.5182 7.23828 12.8828C7.17318 13.1628 7.12435 13.4688 7.0918 13.8008C7.06576 14.1328 7.05273 14.4811 7.05273 14.8457V16.9355C7.05273 17.2806 7.06576 17.6126 7.0918 17.9316C7.11784 18.2507 7.16341 18.5469 7.22852 18.8203C7.30013 19.1654 7.4043 19.4811 7.54102 19.7676C7.68424 20.0475 7.85026 20.2754 8.03906 20.4512C8.21484 20.6074 8.41341 20.7279 8.63477 20.8125C8.86263 20.8971 9.11979 20.9395 9.40625 20.9395C9.67969 20.9395 9.93034 20.9004 10.1582 20.8223C10.3861 20.7441 10.5879 20.6302 10.7637 20.4805C10.985 20.2982 11.1706 20.0703 11.3203 19.7969C11.4766 19.5169 11.6003 19.2012 11.6914 18.8496C11.763 18.5762 11.8151 18.2767 11.8477 17.9512C11.8867 17.6257 11.9062 17.2871 11.9062 16.9355V14.8457ZM27.1641 23H24.4492V16.8379H20.4258V23H17.7012V8.78125H20.4258V14.6113H24.4492V8.78125H27.1641V23Z" fill="black"/>
</svg>
