<svg width="32" height="32" viewBox="0 0 32 32" fill="none" xmlns="http://www.w3.org/2000/svg">
<rect width="32" height="32" rx="10" fill="white"/>
<path d="M18.125 19.5195C18.125 19.3242 18.0781 19.1523 17.9844 19.0039C17.8984 18.8555 17.7422 18.7148 17.5156 18.582C17.2812 18.457 16.9727 18.3398 16.5898 18.2305C16.207 18.1211 15.7227 18.0117 15.1367 17.9023C14.3945 17.7539 13.7148 17.5703 13.0977 17.3516C12.4883 17.125 11.9648 16.8516 11.5273 16.5312C11.0898 16.2188 10.7461 15.8555 10.4961 15.4414C10.2539 15.0273 10.1328 14.5508 10.1328 14.0117C10.1328 13.4883 10.2578 12.9883 10.5078 12.5117C10.7578 12.0352 11.1172 11.6172 11.5859 11.2578C12.0547 10.8984 12.625 10.6133 13.2969 10.4023C13.9688 10.1914 14.7266 10.0859 15.5703 10.0859C16.4531 10.0859 17.2461 10.1914 17.9492 10.4023C18.6523 10.6055 19.25 10.8867 19.7422 11.2461C20.2266 11.6133 20.5977 12.0469 20.8555 12.5469C21.1133 13.0469 21.2422 13.5898 21.2422 14.1758H17.9844C17.9844 13.9648 17.9492 13.7695 17.8789 13.5898C17.8086 13.4023 17.7031 13.2344 17.5625 13.0859C17.3672 12.8906 17.1016 12.7344 16.7656 12.6172C16.4375 12.5 16.0391 12.4414 15.5703 12.4414C15.1719 12.4414 14.8242 12.4805 14.5273 12.5586C14.2305 12.6367 13.9883 12.7461 13.8008 12.8867C13.6289 13.0117 13.4961 13.1602 13.4023 13.332C13.3164 13.4961 13.2734 13.6719 13.2734 13.8594C13.2734 14.0469 13.3125 14.2227 13.3906 14.3867C13.4688 14.543 13.6094 14.6836 13.8125 14.8086C14.0078 14.9414 14.2773 15.0625 14.6211 15.1719C14.9648 15.2734 15.4023 15.3633 15.9336 15.4414C16.6992 15.5664 17.4102 15.7266 18.0664 15.9219C18.7227 16.1172 19.2891 16.3672 19.7656 16.6719C20.2422 16.9844 20.6133 17.3633 20.8789 17.8086C21.1523 18.2461 21.2891 18.7695 21.2891 19.3789C21.2891 19.9414 21.1523 20.4609 20.8789 20.9375C20.6133 21.4062 20.2344 21.8125 19.7422 22.1562C19.2422 22.5 18.6406 22.7695 17.9375 22.9648C17.2344 23.1523 16.4492 23.2461 15.582 23.2461C14.6289 23.2461 13.7852 23.1211 13.0508 22.8711C12.3242 22.6211 11.7148 22.293 11.2227 21.8867C10.7305 21.4883 10.3555 21.0352 10.0977 20.5273C9.84766 20.0117 9.72266 19.4961 9.72266 18.9805H12.8281C12.8516 19.3242 12.9453 19.6211 13.1094 19.8711C13.2734 20.1133 13.4844 20.3086 13.7422 20.457C14 20.6133 14.293 20.7266 14.6211 20.7969C14.957 20.8672 15.3008 20.9023 15.6523 20.9023C16.0742 20.9023 16.4414 20.8672 16.7539 20.7969C17.0742 20.7188 17.3359 20.6172 17.5391 20.4922C17.7344 20.3672 17.8789 20.2227 17.9727 20.0586C18.0742 19.8945 18.125 19.7148 18.125 19.5195Z" fill="black"/>
</svg>
